HIERARCHY
ROOT hip
{
  OFFSET 0 0 0
  CHANNELS 6 Xposition Yposition Zposition Zrotation Yrotation Xrotation
  JOINT abdomen
  {
    OFFSET 0 20.6881 -0.73152
    CHANNELS 3 Zrotation Xrotation Yrotation
    JOINT chest
    {
      OFFSET 0 11.7043 -0.48768
      CHANNELS 3 Zrotation Xrotation Yrotation
      JOINT neck
      {
        OFFSET 0 22.1894 -2.19456
        CHANNELS 3 Zrotation Xrotation Yrotation
        JOINT head
        {
          OFFSET -0.24384 7.07133 1.2192
          CHANNELS 3 Zrotation Xrotation Yrotation
          JOINT leftEye
          {
            OFFSET 4.14528 8.04674 8.04672
            CHANNELS 3 Zrotation Xrotation Yrotation
            End Site
            {
              OFFSET 1 0 0
            }
          }
          JOINT rightEye
          {
            OFFSET -3.6576 8.04674 8.04672
            CHANNELS 3 Zrotation Xrotation Yrotation
            End Site
            {
              OFFSET 1 0 0
            }
          }
        }
      }
      JOINT rCollar
      {
        OFFSET -2.68224 19.2634 -4.8768
        CHANNELS 3 Zrotation Xrotation Yrotation
        JOINT rShldr
        {
          OFFSET -8.77824 -1.95073 1.46304
          CHANNELS 3 Zrotation Xrotation Yrotation
          JOINT rForeArm
          {
            OFFSET -28.1742 -1.7115 0.48768
            CHANNELS 3 Zrotation Xrotation Yrotation
            JOINT rHand
            {
              OFFSET -22.5879 0.773209 7.07136
              CHANNELS 3 Zrotation Xrotation Yrotation
              JOINT rThumb1
              {
                OFFSET -1.2192 -0.487915 3.41376
                CHANNELS 3 Zrotation Xrotation Yrotation
                JOINT rThumb2
                {
                  OFFSET -3.37035 -0.52449 3.41376
                  CHANNELS 3 Zrotation Xrotation Yrotation
                  End Site
                  {
                    OFFSET -1.78271 -1.18214 1.43049
                  }
                }
              }
              JOINT rIndex1
              {
                OFFSET -7.75947 0.938293 5.60832
                CHANNELS 3 Zrotation Xrotation Yrotation
                JOINT rIndex2
                {
                  OFFSET -2.54057 -0.884171 1.56538
                  CHANNELS 3 Zrotation Xrotation Yrotation
                  End Site
                  {
                    OFFSET -1.62519 -0.234802 1.16502
                  }
                }
              }
              JOINT rMid1
              {
                OFFSET -8.24714 1.18213 3.41376
                CHANNELS 3 Zrotation Xrotation Yrotation
                JOINT rMid2
                {
                  OFFSET -3.10165 -0.590103 1.0647
                  CHANNELS 3 Zrotation Xrotation Yrotation
                  End Site
                  {
                    OFFSET -2.48547 -0.328903 0.83742
                  }
                }
              }
              JOINT rRing1
              {
                OFFSET -8.82822 0.546677 1.51678
                CHANNELS 3 Zrotation Xrotation Yrotation
                JOINT rRing2
                {
                  OFFSET -2.60934 -0.819778 -0.0198488
                  CHANNELS 3 Zrotation Xrotation Yrotation
                  End Site
                  {
                    OFFSET -2.33842 -0.294052 0.168128
                  }
                }
              }
              JOINT rPinky1
              {
                OFFSET -8.27202 -0.0477905 -0.4584
                CHANNELS 3 Zrotation Xrotation Yrotation
                JOINT rPinky2
                {
                  OFFSET -1.82734 -0.647385 -0.700984
                  CHANNELS 3 Zrotation Xrotation Yrotation
                  End Site
                  {
                    OFFSET -1.69225 -0.51767 -0.607171
                  }
                }
              }
            }
          }
        }
      }
      JOINT lCollar
      {
        OFFSET 2.68224 19.2634 -4.8768
        CHANNELS 3 Zrotation Xrotation Yrotation
        JOINT lShldr
        {
          OFFSET 8.77824 -1.95073 1.46304
          CHANNELS 3 Zrotation Xrotation Yrotation
          JOINT lForeArm
          {
            OFFSET 28.1742 -1.7115 0.48768
            CHANNELS 3 Zrotation Xrotation Yrotation
            JOINT lHand
            {
              OFFSET 22.5879 0.773209 7.07136
              CHANNELS 3 Zrotation Xrotation Yrotation
              JOINT lThumb1
              {
                OFFSET 1.2192 -0.487915 3.41376
                CHANNELS 3 Zrotation Xrotation Yrotation
                JOINT lThumb2
                {
                  OFFSET 3.37035 -0.52449 3.41376
                  CHANNELS 3 Zrotation Xrotation Yrotation
                  End Site
                  {
                    OFFSET 1.78271 -1.18214 1.43049
                  }
                }
              }
              JOINT lIndex1
              {
                OFFSET 7.75947 0.938293 5.60832
                CHANNELS 3 Zrotation Xrotation Yrotation
                JOINT lIndex2
                {
                  OFFSET 2.54057 -0.884171 1.56538
                  CHANNELS 3 Zrotation Xrotation Yrotation
                  End Site
                  {
                    OFFSET 1.62519 -0.234802 1.16502
                  }
                }
              }
              JOINT lMid1
              {
                OFFSET 8.24714 1.18213 3.41376
                CHANNELS 3 Zrotation Xrotation Yrotation
                JOINT lMid2
                {
                  OFFSET 3.10165 -0.590103 1.0647
                  CHANNELS 3 Zrotation Xrotation Yrotation
                  End Site
                  {
                    OFFSET 2.48547 -0.328903 0.83742
                  }
                }
              }
              JOINT lRing1
              {
                OFFSET 8.82822 0.546677 1.51678
                CHANNELS 3 Zrotation Xrotation Yrotation
                JOINT lRing2
                {
                  OFFSET 2.60934 -0.819778 -0.0198488
                  CHANNELS 3 Zrotation Xrotation Yrotation
                  End Site
                  {
                    OFFSET 2.33842 -0.294052 0.168128
                  }
                }
              }
              JOINT lPinky1
              {
                OFFSET 8.27202 -0.0477905 -0.4584
                CHANNELS 3 Zrotation Xrotation Yrotation
                JOINT lPinky2
                {
                  OFFSET 1.82734 -0.647385 -0.700984
                  CHANNELS 3 Zrotation Xrotation Yrotation
                  End Site
                  {
                    OFFSET 1.69225 -0.51767 -0.607171
                  }
                }
              }
            }
          }
        }
      }
    }
  }
  JOINT rButtock
  {
    OFFSET -8.77824 4.35084 1.2192
    CHANNELS 3 Zrotation Xrotation Yrotation
    JOINT rThigh
    {
      OFFSET 0 -1.70687 -2.19456
      CHANNELS 3 Zrotation Xrotation Yrotation
      JOINT rShin
      {
        OFFSET 0 -36.8199 0.73152
        CHANNELS 3 Zrotation Xrotation Yrotation
        JOINT rFoot
        {
          OFFSET 0.73152 -45.1104 -5.12064
          CHANNELS 3 Zrotation Xrotation Yrotation
          End Site
          {
            OFFSET -1.1221 -3.69964 12.103
          }
        }
      }
    }
  }
  JOINT lButtock
  {
    OFFSET 8.77824 4.35084 1.2192
    CHANNELS 3 Zrotation Xrotation Yrotation
    JOINT lThigh
    {
      OFFSET 0 -1.70687 -2.19456
      CHANNELS 3 Zrotation Xrotation Yrotation
      JOINT lShin
      {
        OFFSET 0 -36.8199 0.73152
        CHANNELS 3 Zrotation Xrotation Yrotation
        JOINT lFoot
        {
          OFFSET -0.73152 -45.1104 -5.12064
          CHANNELS 3 Zrotation Xrotation Yrotation
          End Site
          {
            OFFSET 1.1221 -3.69964 12.103
          }
        }
      }
    }
  }
}
MOTION
Frames:	5
Frame Time:	0.00833333
-21.41 65.6598 -39.289 -293.579 81.3145 -287.733 -22.9023 39.3748 -4.1061 9.17525 -3.06387 -1.97589 -12.2541 15.7591 -12.073 63.2256 -50.4244 5.59188 -0.0 0.0 0.0 -0.0 0.0 0.0 9.57219e-14 -7.89053e-13 1.29716e-13 75.2844 -21.5077 6.62531 -26.4947 -24.7761 58.9065 -6.42889 -56.3169 -12.0865 -1.8132e-09 1.25741e-08 -1.54246e-09 -3.04056e-09 2.14894e-08 -2.73433e-09 -1.81319e-09 1.25741e-08 -1.54246e-09 7.73091 5.47488 0.417314 -1.81319e-09 1.25741e-08 -1.54246e-09 2.90554 0.965183 0.102902 -1.81319e-09 1.25741e-08 -1.54246e-09 10.2786 0.731801 0.0259123 -1.8132e-09 1.25741e-08 -1.54245e-09 2.22167 -0.733487 -0.20892 9.57715e-14 -7.89054e-13 1.29478e-13 -59.9117 17.9201 -11.7055 23.5527 -18.2944 -48.2399 0.702524 -23.0926 3.43565 -8.31754e-10 1.43322e-09 3.03141e-09 -1.49504e-09 2.48305e-09 5.22884e-09 -8.31759e-10 1.43322e-09 3.03142e-09 -7.73091 5.47488 -0.417314 -8.31753e-10 1.43322e-09 3.03141e-09 -2.90554 0.965183 -0.102902 -8.31756e-10 1.43322e-09 3.0314e-09 -10.2786 0.731801 -0.0259123 -8.31752e-10 1.43322e-09 3.03139e-09 -2.22167 -0.733487 0.20892 -2.03217e-16 0.0 -3.88251e-19 -12.3133 -69.1871 -32.8615 -135.983 88.4596 136.583 -4.50597 -6.96845 -14.506 2.03217e-16 0.0 3.88251e-19 28.5878 -24.6067 24.3648 0.669525 58.9163 -2.52141 -2.38485 -19.0081 -8.69991
-19.5093 66.1306 -39.0088 -295.288 80.688 -289.151 -22.7921 38.5115 -5.08439 9.41806 -3.14303 -2.20038 -12.5769 15.5286 -11.7843 62.115 -49.5358 5.14874 -0.0 0.0 0.0 -0.0 0.0 0.0 6.61676e-14 -5.68227e-13 4.78077e-14 76.3844 -21.2697 6.06055 -26.6356 -25.1893 59.5856 -8.17922 -60.0352 -14.1091 -1.66234e-09 1.2353e-08 -1.61057e-09 -2.775e-09 2.10489e-08 -2.84828e-09 -1.66233e-09 1.2353e-08 -1.61057e-09 7.73091 5.47488 0.417314 -1.66234e-09 1.2353e-08 -1.61057e-09 2.90554 0.965183 0.102902 -1.66233e-09 1.2353e-08 -1.61056e-09 10.2786 0.731801 0.0259123 -1.66234e-09 1.2353e-08 -1.61055e-09 2.22167 -0.733487 -0.20892 6.62273e-14 -5.68224e-13 4.75592e-14 -59.7065 18.3639 -12.3182 24.2352 -19.543 -50.3622 0.682974 -22.7979 3.38654 -3.10038e-10 1.11353e-09 2.9197e-09 -5.9169e-10 1.93021e-09 5.04291e-09 -3.10045e-10 1.11353e-09 2.91971e-09 -7.73091 5.47488 -0.417314 -3.10038e-10 1.11353e-09 2.9197e-09 -2.90554 0.965183 -0.102902 -3.1004e-10 1.11353e-09 2.9197e-09 -10.2786 0.731801 -0.0259123 -3.10036e-10 1.11353e-09 2.91969e-09 -2.22167 -0.733487 0.20892 -2.03217e-16 0.0 -3.88251e-19 -12.1032 -69.902 -32.2436 -73.4734 88.9175 74.1265 -4.69269 -7.06357 -15.2215 2.03217e-16 0.0 3.88251e-19 26.9257 -22.082 23.1956 0.524405 56.5071 -2.49229 -2.13427 -18.8388 -8.28015
-17.5247 66.704 -38.7172 -295.836 79.9865 -289.533 -22.6071 37.6477 -6.1704 9.74207 -3.32281 -2.44333 -12.9743 15.2984 -11.4386 60.7365 -48.5566 4.66595 -0.0 0.0 0.0 -0.0 0.0 0.0 3.91806e-14 -2.7487e-13 -4.83183e-14 77.1748 -20.6942 5.58251 -26.7518 -25.5426 60.1642 -9.35095 -62.0466 -15.4239 -9.54104e-10 8.37266e-09 -1.50126e-09 -1.56492e-09 1.41949e-08 -2.62705e-09 -9.541e-10 8.37267e-09 -1.50126e-09 7.73091 5.47488 0.417314 -9.54105e-10 8.37267e-09 -1.50126e-09 2.90554 0.965183 0.102902 -9.541e-10 8.37266e-09 -1.50126e-09 10.2786 0.731801 0.0259123 -9.54107e-10 8.37267e-09 -1.50125e-09 2.22167 -0.733487 -0.20892 3.92739e-14 -2.7486e-13 -4.85714e-14 -59.8818 19.0225 -12.426 24.9238 -20.9358 -52.5358 0.661412 -22.4552 3.32997 3.77549e-10 7.29326e-10 2.30933e-09 6.08488e-10 1.26244e-09 3.99727e-09 3.77542e-10 7.29324e-10 2.30935e-09 -7.73091 5.47488 -0.417314 3.77548e-10 7.29325e-10 2.30933e-09 -2.90554 0.965183 -0.102902 3.77546e-10 7.29325e-10 2.30933e-09 -10.2786 0.731801 -0.0259123 3.77551e-10 7.29324e-10 2.30933e-09 -2.22167 -0.733487 0.20892 -2.03217e-16 0.0 -3.88251e-19 -11.9023 -70.3717 -31.5594 -30.0132 87.9901 30.7175 -4.86306 -7.41592 -15.6512 2.03217e-16 0.0 3.88251e-19 25.162 -19.4755 21.8062 0.398277 53.8799 -2.46739 -1.82376 -18.3061 -7.80481
-15.5022 67.3057 -38.3839 -297.491 79.246 -291.054 -22.3748 36.7503 -7.3145 10.1094 -3.56951 -2.69628 -13.4237 15.0608 -11.0561 59.1572 -47.5157 4.15223 -0.0 0.0 0.0 -0.0 0.0 0.0 1.24303e-14 7.05779e-14 -1.6228e-13 77.7835 -19.8768 5.17757 -26.8541 -25.864 60.6812 -9.90562 -62.9569 -16.0494 1.37782e-10 1.82473e-09 -1.28361e-09 2.95773e-10 2.95684e-09 -2.19908e-09 1.37784e-10 1.82473e-09 -1.28361e-09 7.73091 5.47488 0.417314 1.37781e-10 1.82474e-09 -1.28362e-09 2.90554 0.965183 0.102902 1.37786e-10 1.82473e-09 -1.28361e-09 10.2786 0.731801 0.0259123 1.37779e-10 1.82473e-09 -1.28361e-09 2.22167 -0.733487 -0.20892 1.25707e-14 7.05984e-14 -1.62534e-13 -60.3996 19.8674 -12.1118 25.5777 -22.4012 -54.8396 0.636101 -22.0336 3.261 1.20709e-09 2.73796e-10 1.34362e-09 2.06126e-09 4.68904e-10 2.33931e-09 1.20709e-09 2.73795e-10 1.34364e-09 -7.73091 5.47488 -0.417314 1.20709e-09 2.73795e-10 1.34362e-09 -2.90554 0.965183 -0.102902 1.20709e-09 2.73794e-10 1.34362e-09 -10.2786 0.731801 -0.0259123 1.2071e-09 2.73794e-10 1.34362e-09 -2.22167 -0.733487 0.20892 -2.03217e-16 0.0 -3.88251e-19 -11.6664 -70.6295 -30.739 -16.9335 86.6579 17.6868 -5.01564 -7.9229 -15.8803 2.03217e-16 0.0 3.88251e-19 23.3657 -16.7466 20.2531 0.286014 51.0214 -2.44707 -1.46307 -17.4704 -7.25681
-13.4955 67.8771 -37.9832 -300.108 78.5018 -293.411 -22.1025 35.7989 -8.45964 10.4598 -3.7914 -2.95202 -13.8471 14.7997 -10.6675 57.4611 -46.508 3.64922 -0.0 0.0 0.0 -0.0 0.0 0.0 3.5326e-15 3.09642e-13 -2.43543e-13 78.2692 -19.0171 4.87965 -26.9532 -26.1845 61.1854 -9.95126 -63.1003 -16.1133 1.14298e-09 -4.47278e-09 -9.44348e-10 2.00165e-09 -7.81404e-09 -1.56547e-09 1.14299e-09 -4.47278e-09 -9.44347e-10 7.73091 5.47488 0.417314 1.14298e-09 -4.47278e-09 -9.44354e-10 2.90554 0.965183 0.102902 1.14299e-09 -4.47278e-09 -9.44349e-10 10.2786 0.731801 0.0259123 1.14298e-09 -4.47278e-09 -9.44347e-10 2.22167 -0.733487 -0.20892 3.70874e-15 3.09672e-13 -2.43796e-13 -61.0225 20.9513 -11.5651 26.1228 -23.7585 -57.0993 0.603642 -21.4929 3.17285 1.83839e-09 -7.28243e-11 1.41854e-10 3.17479e-09 -1.34422e-10 2.70688e-10 1.83839e-09 -7.28246e-11 1.41867e-10 -7.73091 5.47488 -0.417314 1.83839e-09 -7.28259e-11 1.41857e-10 -2.90554 0.965183 -0.102902 1.83839e-09 -7.28272e-11 1.41856e-10 -10.2786 0.731801 -0.0259123 1.8384e-09 -7.2828e-11 1.41855e-10 -2.22167 -0.733487 0.20892 -2.03217e-16 0.0 -3.88251e-19 -11.6151 -70.7258 -30.061 -11.6337 85.3238 12.4352 -5.15191 -8.43198 -16.0416 2.03217e-16 0.0 3.88251e-19 21.5842 -13.9842 18.6265 0.184056 48.07 -2.42813 -1.04815 -16.3369 -6.57192
